<svg version="1.1" id="Layer_1" xmlns="http://www.w3.org/2000/svg" xmlns:xlink="http://www.w3.org/1999/xlink" x="0px" y="0px"
	 width="100%" viewBox="0 0 331 85" enable-background="new 0 0 331 85" xml:space="preserve">
<path fill="#010101" opacity="1.000000" stroke="none" 
	d="
M15.000000,86.000000 
	C10.340056,86.000000 5.680113,86.000000 1.015127,86.000000 
	C1.010085,57.714214 1.010085,29.428421 1.010085,1.000000 
	C69.020828,1.000000 137.041763,1.000000 205.672775,1.326535 
	C215.094254,4.706165 220.098404,10.620294 220.199158,19.088360 
	C220.391418,35.247646 220.423904,51.413387 220.185913,67.571487 
	C220.049240,76.849075 213.538727,83.629135 203.692352,85.085251 
	C141.852005,85.024422 80.490837,85.003998 19.129692,85.038589 
	C17.752949,85.039360 16.376556,85.665543 15.000000,86.000000 
M177.176224,35.289158 
	C170.644470,29.007198 155.018799,32.535507 155.411362,43.363197 
	C157.823166,42.284672 159.894608,41.323669 161.994095,40.428444 
	C164.508682,39.356213 167.094269,37.402435 169.564011,37.526379 
	C173.000946,37.698860 174.009674,40.787514 173.805359,43.706390 
	C168.615387,45.084694 163.753235,46.086288 159.107178,47.707272 
	C155.772202,48.870823 153.652481,51.514507 154.002396,55.387535 
	C154.352142,59.259140 156.519577,61.736073 160.160812,63.027225 
	C165.484879,64.915108 170.189438,63.669304 172.916885,61.257259 
	C176.292572,62.205044 178.425812,62.803989 180.555222,63.401859 
	C180.555222,56.520981 180.859421,50.547192 180.427597,44.627083 
	C180.209885,41.642139 178.657883,38.754517 177.176224,35.289158 
M130.802567,41.101025 
	C131.590775,43.767284 130.245407,44.440697 127.838570,44.859230 
	C123.941589,45.536892 120.005753,46.352005 116.309288,47.714157 
	C113.012817,48.928917 110.826164,51.564281 111.166626,55.426517 
	C111.509514,59.316292 113.794838,61.739761 117.418205,63.024818 
	C122.772705,64.923828 127.476021,63.612411 130.148407,61.263126 
	C133.503036,62.185513 135.625122,62.769001 137.579987,63.306511 
	C137.579987,55.785122 137.982315,49.140350 137.469162,42.567043 
	C136.933960,35.711109 132.791916,32.418736 125.799965,32.138836 
	C118.543732,31.848356 114.017540,35.206272 112.299911,43.258709 
	C114.930717,42.336510 117.724930,42.229515 118.843086,40.805996 
	C122.613297,36.006165 126.309349,35.633575 130.802567,41.101025 
M26.426632,36.987663 
	C21.546494,43.404434 21.440008,50.254547 25.103045,57.115688 
	C27.865973,62.290855 34.198006,64.731773 40.144489,63.499329 
	C46.017868,62.282032 49.219921,59.208805 49.988991,53.215275 
	C47.445290,54.139427 45.337856,55.045517 43.149361,55.665401 
	C40.273151,56.480083 37.014198,58.164299 34.513706,57.435905 
	C32.192436,56.759712 30.651432,53.404964 28.766874,51.229588 
	C29.123398,50.762112 29.479921,50.294632 29.836445,49.827152 
	C36.883472,49.827152 43.930496,49.827152 51.032120,49.827152 
	C51.116909,42.756809 49.486328,36.927845 43.110462,33.895699 
	C37.332451,31.147873 31.780817,32.107349 26.426632,36.987663 
M105.391418,41.563213 
	C108.543930,41.821510 108.168274,40.372150 107.062767,38.328106 
	C104.015556,32.693905 94.272240,30.338938 88.059448,34.423496 
	C85.905594,35.839539 83.635345,39.193764 83.813217,41.476070 
	C84.010872,44.012131 86.496071,46.991795 88.810028,48.566486 
	C91.133568,50.147705 94.615311,49.910667 97.317032,51.093025 
	C99.146103,51.893486 100.504120,53.770332 102.072823,55.165749 
	C100.153786,56.374374 98.352455,58.199337 96.278252,58.595455 
	C94.636292,58.909023 91.759987,57.996971 91.003288,56.707191 
	C88.895409,53.114372 86.161087,53.688110 82.682457,54.022274 
	C84.269760,59.699356 87.620354,62.530079 92.888519,63.458511 
	C98.139465,64.383904 102.962418,63.578030 106.627602,59.599628 
	C110.358521,55.549870 108.957588,49.355366 103.858261,47.134174 
	C101.001984,45.890026 97.696533,45.682930 94.828018,44.458889 
	C92.969574,43.665859 91.534798,41.879993 89.910179,40.538994 
	C91.946358,39.583893 93.956177,37.956219 96.026611,37.875072 
	C97.860023,37.803223 99.752953,39.469036 101.635231,40.333710 
	C102.610199,40.781593 103.619041,41.155724 105.391418,41.563213 
M63.166378,56.836983 
	C63.166378,50.640343 63.166378,44.443707 63.166378,38.136116 
	C64.839752,38.050652 66.456314,37.968090 68.192757,37.879406 
	C68.192757,36.140713 68.192757,34.633125 68.192757,33.108799 
	C66.196365,32.993187 64.568565,32.898918 62.448563,32.776150 
	C62.448563,30.192518 62.448563,27.794819 62.448563,25.428047 
	C60.027473,25.428047 58.128414,25.428047 55.952686,25.428047 
	C55.952686,28.011795 55.952686,30.295826 55.952686,32.654842 
	C54.322231,32.912312 52.951542,33.128761 51.899853,33.294838 
	C50.136990,37.752499 52.907429,38.246922 55.971024,38.202011 
	C55.971024,44.611149 55.961212,50.576729 55.974361,56.542252 
	C55.983646,60.754272 57.953403,63.069374 62.326691,63.031265 
	C64.273964,63.014297 66.221512,63.028400 68.334869,63.028400 
	C68.334869,61.155720 68.334869,59.744545 68.334869,58.373123 
	C66.680649,58.028763 65.253242,57.731613 63.166378,56.836983 
M199.083313,62.442509 
	C199.083313,61.003269 199.083313,59.564030 199.083313,58.124794 
	C198.598450,58.416363 198.113571,58.707932 197.628708,58.999496 
	C196.161865,57.504883 193.591644,56.119942 193.430176,54.495571 
	C192.895172,49.113384 193.228180,43.644924 193.228180,38.246403 
	C195.514999,38.037926 197.277420,37.877258 199.235657,37.698738 
	C199.122269,35.997223 199.028351,34.587654 198.937500,33.224270 
	C196.841644,33.015846 195.098160,32.842464 193.336304,32.667255 
	C193.198639,30.068790 193.078568,27.802399 192.957001,25.507786 
	C190.768860,25.507786 188.903351,25.507786 186.983215,25.507786 
	C186.859283,28.136099 186.751480,30.422607 186.633514,32.924564 
	C182.760895,32.531979 181.035339,33.810627 182.615707,37.717033 
	C183.956833,37.927788 185.332199,38.143925 186.833237,38.379810 
	C186.833237,44.561348 186.742111,50.371944 186.860214,56.178284 
	C186.967010,61.427616 188.513702,62.849689 193.829483,62.995472 
	C195.324493,63.036469 196.822296,62.975292 199.083313,62.442509 
M149.846939,57.347744 
	C149.846939,45.919670 149.846939,34.491600 149.846939,22.945372 
	C147.386261,22.945372 145.448532,22.945372 143.318329,22.945372 
	C143.318329,36.336395 143.318329,49.545242 143.318329,62.850555 
	C145.507690,62.850555 147.439102,62.850555 149.643524,62.850555 
	C149.716614,61.218128 149.781769,59.762680 149.846939,57.347744 
M78.878860,35.784653 
	C78.232033,30.474611 74.695915,33.894547 72.413116,33.155609 
	C72.413116,43.361240 72.413116,53.086617 72.413116,62.790035 
	C74.635895,62.790035 76.563667,62.790035 78.879295,62.790035 
	C78.879295,53.947239 78.879295,45.341038 78.878860,35.784653 
M72.336464,23.238934 
	C72.248825,25.176434 72.161186,27.113934 72.063683,29.269581 
	C74.561226,29.269581 76.611084,29.269581 78.685867,29.269581 
	C78.685867,26.987804 78.685867,25.060495 78.685867,22.872009 
	C76.664017,22.872009 74.863235,22.872009 72.336464,23.238934 
z"/>
<path fill="#DF0C15" opacity="1.000000" stroke="none" 
	d="
M204.171555,85.132187 
	C213.538727,83.629135 220.049240,76.849075 220.185913,67.571487 
	C220.423904,51.413387 220.391418,35.247646 220.199158,19.088360 
	C220.098404,10.620294 215.094254,4.706165 206.141434,1.326535 
	C244.020889,1.000000 282.041779,1.000000 320.320984,1.333404 
	C323.855927,5.025175 327.114777,8.401441 330.438690,11.712351 
	C330.747864,12.020320 331.469757,11.913971 332.000000,12.000000 
	C332.000000,32.687561 332.000000,53.375122 331.677612,74.312431 
	C328.233948,77.546783 325.094055,80.512306 322.004852,83.529709 
	C321.251251,84.265785 320.663849,85.172012 320.000000,86.000000 
	C281.645782,86.000000 243.291550,86.000000 204.508392,85.782425 
	C204.079483,85.564850 204.171555,85.132187 204.171555,85.132187 
M245.636215,26.710373 
	C246.422272,30.044725 250.156189,33.404930 245.540100,36.931061 
	C252.755157,34.903439 251.221832,27.930962 254.137238,23.597212 
	C253.593658,23.303633 253.050095,23.010056 252.506516,22.716478 
	C251.471954,24.750736 250.437378,26.784996 249.417160,28.791042 
	C248.341675,26.830027 247.218475,24.782003 246.095276,22.733980 
	C245.720749,22.884356 245.346222,23.034731 244.971695,23.185108 
	C244.971695,24.293266 244.971695,25.401426 244.284561,26.261038 
	C242.179413,24.733147 240.074265,23.205256 237.969116,21.677364 
	C237.746277,21.983974 237.523438,22.290585 237.300583,22.597195 
	C236.861954,21.379692 236.423309,20.162191 235.984680,18.944689 
	C235.554886,19.015282 235.125076,19.085875 234.695282,19.156466 
	C234.695282,23.841944 234.695282,28.527422 234.695282,33.220943 
	C243.451050,33.787960 243.451050,33.787960 245.636215,26.710373 
M285.424011,45.952106 
	C289.032440,44.276047 292.731110,42.767979 296.229919,40.887924 
	C302.906189,37.300476 304.908630,29.495813 300.458923,25.075935 
	C296.839478,21.480747 288.408081,21.274536 284.203247,24.678350 
	C280.355164,27.793369 280.113922,31.946117 283.457458,37.687904 
	C283.859283,38.378002 284.302948,39.043758 284.727234,39.720791 
	C284.470032,40.171638 284.212830,40.622482 283.955658,41.073326 
	C282.707611,40.431786 281.380829,39.906616 280.226929,39.125912 
	C277.288361,37.137707 274.694855,34.091991 271.477966,33.178612 
	C265.139313,31.378849 259.132263,34.420349 256.108459,39.712231 
	C252.843033,45.426979 253.450012,53.323166 257.553894,58.515491 
	C261.240448,63.179825 268.024536,65.475113 273.744904,62.782532 
	C277.536438,60.997849 280.188568,61.291279 283.968994,62.691311 
	C287.235535,63.901024 291.456299,63.178944 295.101776,62.494015 
	C297.536560,62.036556 299.702362,60.147625 301.988556,58.899303 
	C301.890198,59.386864 301.791809,59.874424 301.693451,60.361984 
	C305.581024,61.509262 309.468628,62.656544 313.356201,63.803822 
	C313.589172,63.287651 313.822144,62.771481 314.055115,62.255310 
	C313.348969,61.419922 312.760223,60.434776 311.917206,59.773926 
	C307.138031,56.027451 305.017700,51.772148 308.492523,45.910545 
	C309.234070,44.659630 309.028839,42.847443 309.262909,41.272736 
	C306.903778,41.272736 305.000031,41.272736 304.096313,41.272736 
	C301.848114,46.053207 300.405029,50.572594 297.808746,54.285645 
	C294.339447,59.247269 288.455597,59.425369 283.875580,55.721664 
	C280.651672,53.114616 277.726929,53.595600 274.181458,56.003716 
	C271.939148,57.526699 268.067932,58.070351 265.496429,57.256035 
	C263.305725,56.562325 261.928131,53.300938 260.190826,51.175472 
	C266.694702,50.020943 272.175568,49.823978 277.633270,50.094547 
	C280.926575,50.257816 283.382782,49.546616 285.424011,45.952106 
z"/>
<path fill="#460507" opacity="1.000000" stroke="none" 
	d="
M203.692352,85.085251 
	C204.171555,85.132187 204.079483,85.564850 204.039734,85.782425 
	C141.312439,86.000000 78.624878,86.000000 15.468657,86.000000 
	C16.376556,85.665543 17.752949,85.039360 19.129692,85.038589 
	C80.490837,85.003998 141.852005,85.024422 203.692352,85.085251 
z"/>
<path fill="#000000" opacity="1.000000" stroke="none" 
	d="
M320.479187,86.000000 
	C320.663849,85.172012 321.251251,84.265785 322.004852,83.529709 
	C325.094055,80.512306 328.233948,77.546783 331.677612,74.781090 
	C332.000000,78.591972 332.000000,82.183937 332.000000,86.000000 
	C328.321228,86.000000 324.639801,86.000000 320.479187,86.000000 
z"/>
<path fill="#000000" opacity="1.000000" stroke="none" 
	d="
M332.000000,11.517044 
	C331.469757,11.913971 330.747864,12.020320 330.438690,11.712351 
	C327.114777,8.401441 323.855927,5.025175 320.789642,1.333404 
	C324.587219,1.000000 328.174408,1.000000 332.000000,1.000000 
	C332.000000,4.342551 332.000000,7.688319 332.000000,11.517044 
z"/>
<path fill="#F0F0F0" opacity="1.000000" stroke="none" 
	d="
M177.442719,35.556023 
	C178.657883,38.754517 180.209885,41.642139 180.427597,44.627083 
	C180.859421,50.547192 180.555222,56.520981 180.555222,63.401859 
	C178.425812,62.803989 176.292572,62.205044 172.916885,61.257259 
	C170.189438,63.669304 165.484879,64.915108 160.160812,63.027225 
	C156.519577,61.736073 154.352142,59.259140 154.002396,55.387535 
	C153.652481,51.514507 155.772202,48.870823 159.107178,47.707272 
	C163.753235,46.086288 168.615387,45.084694 173.805359,43.706390 
	C174.009674,40.787514 173.000946,37.698860 169.564011,37.526379 
	C167.094269,37.402435 164.508682,39.356213 161.994095,40.428444 
	C159.894608,41.323669 157.823166,42.284672 155.411362,43.363197 
	C155.018799,32.535507 170.644470,29.007198 177.442719,35.556023 
M166.006683,50.186768 
	C163.387955,51.190788 159.763199,52.175133 161.439102,55.670444 
	C162.258881,57.380222 165.977921,58.610550 168.303940,58.490658 
	C172.636185,58.267361 174.180023,54.985043 173.530884,48.986435 
	C171.283981,49.337879 169.044098,49.688225 166.006683,50.186768 
z"/>
<path fill="#F1F1F1" opacity="1.000000" stroke="none" 
	d="
M130.656006,40.724041 
	C126.309349,35.633575 122.613297,36.006165 118.843086,40.805996 
	C117.724930,42.229515 114.930717,42.336510 112.299911,43.258709 
	C114.017540,35.206272 118.543732,31.848356 125.799965,32.138836 
	C132.791916,32.418736 136.933960,35.711109 137.469162,42.567043 
	C137.982315,49.140350 137.579987,55.785122 137.579987,63.306511 
	C135.625122,62.769001 133.503036,62.185513 130.148407,61.263126 
	C127.476021,63.612411 122.772705,64.923828 117.418205,63.024818 
	C113.794838,61.739761 111.509514,59.316292 111.166626,55.426517 
	C110.826164,51.564281 113.012817,48.928917 116.309288,47.714157 
	C120.005753,46.352005 123.941589,45.536892 127.838570,44.859230 
	C130.245407,44.440697 131.590775,43.767284 130.656006,40.724041 
M126.612999,58.331200 
	C131.120132,56.666721 131.378586,53.152420 130.946152,48.858772 
	C127.986382,49.381393 125.410828,49.795399 122.855911,50.311539 
	C122.064163,50.471489 121.073891,50.702370 120.619766,51.262054 
	C119.655296,52.450722 118.391106,53.872692 118.382233,55.206547 
	C118.375366,56.237843 119.910118,57.719334 121.087715,58.205231 
	C122.503334,58.789345 124.266777,58.530495 126.612999,58.331200 
z"/>
<path fill="#F3F3F3" opacity="1.000000" stroke="none" 
	d="
M26.681046,36.712452 
	C31.780817,32.107349 37.332451,31.147873 43.110462,33.895699 
	C49.486328,36.927845 51.116909,42.756809 51.032120,49.827152 
	C43.930496,49.827152 36.883472,49.827152 29.836445,49.827152 
	C29.479921,50.294632 29.123398,50.762112 28.766874,51.229588 
	C30.651432,53.404964 32.192436,56.759712 34.513706,57.435905 
	C37.014198,58.164299 40.273151,56.480083 43.149361,55.665401 
	C45.337856,55.045517 47.445290,54.139427 49.988991,53.215275 
	C49.219921,59.208805 46.017868,62.282032 40.144489,63.499329 
	C34.198006,64.731773 27.865973,62.290855 25.103045,57.115688 
	C21.440008,50.254547 21.546494,43.404434 26.681046,36.712452 
M40.266701,45.157715 
	C41.499352,45.055267 42.732002,44.952820 43.991745,44.848118 
	C43.024612,39.379856 40.813412,37.418346 36.120285,37.880199 
	C31.989059,38.286751 29.736250,40.541386 29.667789,45.157776 
	C33.093616,45.157776 36.213276,45.157776 40.266701,45.157715 
z"/>
<path fill="#EFEFEF" opacity="1.000000" stroke="none" 
	d="
M105.001999,41.563194 
	C103.619041,41.155724 102.610199,40.781593 101.635231,40.333710 
	C99.752953,39.469036 97.860023,37.803223 96.026611,37.875072 
	C93.956177,37.956219 91.946358,39.583893 89.910179,40.538994 
	C91.534798,41.879993 92.969574,43.665859 94.828018,44.458889 
	C97.696533,45.682930 101.001984,45.890026 103.858261,47.134174 
	C108.957588,49.355366 110.358521,55.549870 106.627602,59.599628 
	C102.962418,63.578030 98.139465,64.383904 92.888519,63.458511 
	C87.620354,62.530079 84.269760,59.699356 82.682457,54.022274 
	C86.161087,53.688110 88.895409,53.114372 91.003288,56.707191 
	C91.759987,57.996971 94.636292,58.909023 96.278252,58.595455 
	C98.352455,58.199337 100.153786,56.374374 102.072823,55.165749 
	C100.504120,53.770332 99.146103,51.893486 97.317032,51.093025 
	C94.615311,49.910667 91.133568,50.147705 88.810028,48.566486 
	C86.496071,46.991795 84.010872,44.012131 83.813217,41.476070 
	C83.635345,39.193764 85.905594,35.839539 88.059448,34.423496 
	C94.272240,30.338938 104.015556,32.693905 107.062767,38.328106 
	C108.168274,40.372150 108.543930,41.821510 105.001999,41.563194 
z"/>
<path fill="#EEEEEE" opacity="1.000000" stroke="none" 
	d="
M63.496109,57.135727 
	C65.253242,57.731613 66.680649,58.028763 68.334869,58.373123 
	C68.334869,59.744545 68.334869,61.155720 68.334869,63.028400 
	C66.221512,63.028400 64.273964,63.014297 62.326691,63.031265 
	C57.953403,63.069374 55.983646,60.754272 55.974361,56.542252 
	C55.961212,50.576729 55.971024,44.611149 55.971024,38.202011 
	C52.907429,38.246922 50.136990,37.752499 51.899853,33.294838 
	C52.951542,33.128761 54.322231,32.912312 55.952686,32.654842 
	C55.952686,30.295826 55.952686,28.011795 55.952686,25.428047 
	C58.128414,25.428047 60.027473,25.428047 62.448563,25.428047 
	C62.448563,27.794819 62.448563,30.192518 62.448563,32.776150 
	C64.568565,32.898918 66.196365,32.993187 68.192757,33.108799 
	C68.192757,34.633125 68.192757,36.140713 68.192757,37.879406 
	C66.456314,37.968090 64.839752,38.050652 63.166378,38.136116 
	C63.166378,44.443707 63.166378,50.640343 63.496109,57.135727 
z"/>
<path fill="#FCFCFC" opacity="1.000000" stroke="none" 
	d="
M198.701065,62.701744 
	C196.822296,62.975292 195.324493,63.036469 193.829483,62.995472 
	C188.513702,62.849689 186.967010,61.427616 186.860214,56.178284 
	C186.742111,50.371944 186.833237,44.561348 186.833237,38.379810 
	C185.332199,38.143925 183.956833,37.927788 182.615707,37.717033 
	C181.035339,33.810627 182.760895,32.531979 186.633514,32.924564 
	C186.751480,30.422607 186.859283,28.136099 186.983215,25.507786 
	C188.903351,25.507786 190.768860,25.507786 192.957001,25.507786 
	C193.078568,27.802399 193.198639,30.068790 193.336304,32.667255 
	C195.098160,32.842464 196.841644,33.015846 198.937500,33.224270 
	C199.028351,34.587654 199.122269,35.997223 199.235657,37.698738 
	C197.277420,37.877258 195.514999,38.037926 193.228180,38.246403 
	C193.228180,43.644924 192.895172,49.113384 193.430176,54.495571 
	C193.591644,56.119942 196.161865,57.504883 197.628708,58.999496 
	C198.113571,58.707932 198.598450,58.416363 199.083313,58.124794 
	C199.083313,59.564030 199.083313,61.003269 198.701065,62.701744 
z"/>
<path fill="#EFEFEF" opacity="1.000000" stroke="none" 
	d="
M149.846939,57.827484 
	C149.781769,59.762680 149.716614,61.218128 149.643524,62.850555 
	C147.439102,62.850555 145.507690,62.850555 143.318329,62.850555 
	C143.318329,49.545242 143.318329,36.336395 143.318329,22.945372 
	C145.448532,22.945372 147.386261,22.945372 149.846939,22.945372 
	C149.846939,34.491600 149.846939,45.919670 149.846939,57.827484 
z"/>
<path fill="#EDEDED" opacity="1.000000" stroke="none" 
	d="
M78.879074,36.259743 
	C78.879295,45.341038 78.879295,53.947239 78.879295,62.790035 
	C76.563667,62.790035 74.635895,62.790035 72.413116,62.790035 
	C72.413116,53.086617 72.413116,43.361240 72.413116,33.155609 
	C74.695915,33.894547 78.232033,30.474611 78.879074,36.259743 
z"/>
<path fill="#E1E1E1" opacity="1.000000" stroke="none" 
	d="
M72.699463,23.055471 
	C74.863235,22.872009 76.664017,22.872009 78.685867,22.872009 
	C78.685867,25.060495 78.685867,26.987804 78.685867,29.269581 
	C76.611084,29.269581 74.561226,29.269581 72.063683,29.269581 
	C72.161186,27.113934 72.248825,25.176434 72.699463,23.055471 
z"/>
<path fill="#FEF4F4" opacity="1.000000" stroke="none" 
	d="
M285.119324,46.190765 
	C283.382782,49.546616 280.926575,50.257816 277.633270,50.094547 
	C272.175568,49.823978 266.694702,50.020943 260.190826,51.175472 
	C261.928131,53.300938 263.305725,56.562325 265.496429,57.256035 
	C268.067932,58.070351 271.939148,57.526699 274.181458,56.003716 
	C277.726929,53.595600 280.651672,53.114616 283.875580,55.721664 
	C288.455597,59.425369 294.339447,59.247269 297.808746,54.285645 
	C300.405029,50.572594 301.848114,46.053207 304.096313,41.272736 
	C305.000031,41.272736 306.903778,41.272736 309.262909,41.272736 
	C309.028839,42.847443 309.234070,44.659630 308.492523,45.910545 
	C305.017700,51.772148 307.138031,56.027451 311.917206,59.773926 
	C312.760223,60.434776 313.348969,61.419922 314.055115,62.255310 
	C313.822144,62.771481 313.589172,63.287651 313.356201,63.803822 
	C309.468628,62.656544 305.581024,61.509262 301.693451,60.361984 
	C301.791809,59.874424 301.890198,59.386864 301.988556,58.899303 
	C299.702362,60.147625 297.536560,62.036556 295.101776,62.494015 
	C291.456299,63.178944 287.235535,63.901024 283.968994,62.691311 
	C280.188568,61.291279 277.536438,60.997849 273.744904,62.782532 
	C268.024536,65.475113 261.240448,63.179825 257.553894,58.515491 
	C253.450012,53.323166 252.843033,45.426979 256.108459,39.712231 
	C259.132263,34.420349 265.139313,31.378849 271.477966,33.178612 
	C274.694855,34.091991 277.288361,37.137707 280.226929,39.125912 
	C281.380829,39.906616 282.707611,40.431786 283.955658,41.073326 
	C284.212830,40.622482 284.470032,40.171638 284.727234,39.720791 
	C284.302948,39.043758 283.859283,38.378002 283.457458,37.687904 
	C280.113922,31.946117 280.355164,27.793369 284.203247,24.678350 
	C288.408081,21.274536 296.839478,21.480747 300.458923,25.075935 
	C304.908630,29.495813 302.906189,37.300476 296.229919,40.887924 
	C292.731110,42.767979 289.032440,44.276047 285.119324,46.190765 
M261.370789,42.333782 
	C261.779327,43.266808 262.150818,44.989140 262.602234,45.010342 
	C266.953552,45.214733 271.318329,45.132854 275.679230,45.132854 
	C275.942963,44.575611 276.206665,44.018372 276.470398,43.461128 
	C274.410980,41.652596 272.625763,39.127064 270.225739,38.209290 
	C266.907104,36.940262 263.707886,38.262993 261.370789,42.333782 
M295.858185,29.190510 
	C293.667816,28.872093 291.477448,28.553677 289.287079,28.235262 
	C289.098663,30.016481 288.365204,31.979626 288.881226,33.525711 
	C289.359100,34.957478 291.173553,35.943119 292.399384,37.125221 
	C293.707886,35.058491 295.032898,33.001751 296.299316,30.909540 
	C296.425629,30.700838 296.195282,30.276241 295.858185,29.190510 
z"/>
<path fill="#FBDEDF" opacity="1.000000" stroke="none" 
	d="
M244.904022,26.359821 
	C243.451050,33.787960 243.451050,33.787960 234.695282,33.220943 
	C234.695282,28.527422 234.695282,23.841944 234.695282,19.156466 
	C235.125076,19.085875 235.554886,19.015282 235.984680,18.944689 
	C236.423309,20.162191 236.861954,21.379692 237.300583,22.597195 
	C237.523438,22.290585 237.746277,21.983974 237.969116,21.677364 
	C240.074265,23.205256 242.179413,24.733147 244.611969,26.347363 
	C244.939362,26.433689 244.904022,26.359821 244.904022,26.359821 
M236.812775,28.374855 
	C237.734222,29.494860 238.655655,30.614864 239.577087,31.734875 
	C240.350113,30.771557 241.710541,29.830536 241.748169,28.839300 
	C241.795731,27.586311 240.765900,26.292427 240.200775,25.016195 
	C239.095871,25.862768 237.990967,26.709343 236.812775,28.374855 
z"/>
<path fill="#FCE4E5" opacity="1.000000" stroke="none" 
	d="
M245.270111,26.535097 
	C244.904022,26.359821 244.939362,26.433689 244.955536,26.471638 
	C244.971695,25.401426 244.971695,24.293266 244.971695,23.185108 
	C245.346222,23.034731 245.720749,22.884356 246.095276,22.733980 
	C247.218475,24.782003 248.341675,26.830027 249.417160,28.791042 
	C250.437378,26.784996 251.471954,24.750736 252.506516,22.716478 
	C253.050095,23.010056 253.593658,23.303633 254.137238,23.597212 
	C251.221832,27.930962 252.755157,34.903439 245.540100,36.931061 
	C250.156189,33.404930 246.422272,30.044725 245.270111,26.535097 
z"/>
<path fill="#0C0C0C" opacity="1.000000" stroke="none" 
	d="
M166.405441,50.112671 
	C169.044098,49.688225 171.283981,49.337879 173.530884,48.986435 
	C174.180023,54.985043 172.636185,58.267361 168.303940,58.490658 
	C165.977921,58.610550 162.258881,57.380222 161.439102,55.670444 
	C159.763199,52.175133 163.387955,51.190788 166.405441,50.112671 
z"/>
<path fill="#0E0E0E" opacity="1.000000" stroke="none" 
	d="
M126.246307,58.483910 
	C124.266777,58.530495 122.503334,58.789345 121.087715,58.205231 
	C119.910118,57.719334 118.375366,56.237843 118.382233,55.206547 
	C118.391106,53.872692 119.655296,52.450722 120.619766,51.262054 
	C121.073891,50.702370 122.064163,50.471489 122.855911,50.311539 
	C125.410828,49.795399 127.986382,49.381393 130.946152,48.858772 
	C131.378586,53.152420 131.120132,56.666721 126.246307,58.483910 
z"/>
<path fill="#080808" opacity="1.000000" stroke="none" 
	d="
M39.799816,45.157745 
	C36.213276,45.157776 33.093616,45.157776 29.667789,45.157776 
	C29.736250,40.541386 31.989059,38.286751 36.120285,37.880199 
	C40.813412,37.418346 43.024612,39.379856 43.991745,44.848118 
	C42.732002,44.952820 41.499352,45.055267 39.799816,45.157745 
z"/>
<path fill="#E1121B" opacity="1.000000" stroke="none" 
	d="
M261.577881,41.978577 
	C263.707886,38.262993 266.907104,36.940262 270.225739,38.209290 
	C272.625763,39.127064 274.410980,41.652596 276.470398,43.461128 
	C276.206665,44.018372 275.942963,44.575611 275.679230,45.132854 
	C271.318329,45.132854 266.953552,45.214733 262.602234,45.010342 
	C262.150818,44.989140 261.779327,43.266808 261.577881,41.978577 
z"/>
<path fill="#E1161E" opacity="1.000000" stroke="none" 
	d="
M295.994324,29.571175 
	C296.195282,30.276241 296.425629,30.700838 296.299316,30.909540 
	C295.032898,33.001751 293.707886,35.058491 292.399384,37.125221 
	C291.173553,35.943119 289.359100,34.957478 288.881226,33.525711 
	C288.365204,31.979626 289.098663,30.016481 289.287079,28.235260 
	C291.477448,28.553677 293.667816,28.872093 295.994324,29.571175 
z"/>
<path fill="#E21C24" opacity="1.000000" stroke="none" 
	d="
M236.849426,27.965385 
	C237.990967,26.709343 239.095871,25.862768 240.200775,25.016190 
	C240.765900,26.292427 241.795731,27.586311 241.748169,28.839300 
	C241.710541,29.830536 240.350113,30.771557 239.577087,31.734871 
	C238.655655,30.614864 237.734222,29.494860 236.849426,27.965385 
z"/>
</svg>